HIERARCHY
ROOT MidHip
{
    OFFSET 0.0 0.0 0.0
    CHANNELS 6 Xposition Yposition Zposition Zrotation Xrotation Yrotation
    JOINT Spine
    {
        OFFSET 0.0 0.0 15.164688432820208
        CHANNELS 3 Zrotation Xrotation Yrotation
        JOINT MidShoulder
        {
            OFFSET 0.0 0.0 15.164688432820213
            CHANNELS 3 Zrotation Xrotation Yrotation
            JOINT Nose
            {
                OFFSET 0.0 0.0 11.034449089197354
                CHANNELS 3 Zrotation Xrotation Yrotation
                End Site
                {
                    OFFSET 0.0 0.0 4.413779635678941
                }
            }
            JOINT RightShoulder
            {
                OFFSET -8.835656678365867 0.0 0.0
                CHANNELS 3 Zrotation Xrotation Yrotation
                JOINT RightElbow
                {
                    OFFSET -12.95266075220992 0.0 0.0
                    CHANNELS 3 Zrotation Xrotation Yrotation
                    JOINT RightWrist
                    {
                        OFFSET -10.922302618104233 0.0 0.0
                        CHANNELS 3 Zrotation Xrotation Yrotation
                        End Site
                        {
                            OFFSET -3.089293698973234 3.089293698973234 0.0
                        }
                        End Site
                        {
                            OFFSET -4.3689210472416935 0.0 0.0
                        }
                        End Site
                        {
                            OFFSET -3.089293698973234 -3.089293698973234 0.0
                        }
                    }
                }
            }
            JOINT LeftShoulder
            {
                OFFSET 8.835656678365867 0.0 0.0
                CHANNELS 3 Zrotation Xrotation Yrotation
                JOINT LeftElbow
                {
                    OFFSET 12.95266075220992 0.0 0.0
                    CHANNELS 3 Zrotation Xrotation Yrotation
                    JOINT LeftWrist
                    {
                        OFFSET 10.922302618104233 0.0 0.0
                        CHANNELS 3 Zrotation Xrotation Yrotation
                        End Site
                        {
                            OFFSET 3.089293698973234 3.089293698973234 0.0
                        }
                        End Site
                        {
                            OFFSET 4.3689210472416935 0.0 0.0
                        }
                        End Site
                        {
                            OFFSET 3.089293698973234 -3.089293698973234 0.0
                        }
                    }
                }
            }
        }
    }
    JOINT RightHip
    {
        OFFSET -5.74966966517394 0.0 0.0
        CHANNELS 3 Zrotation Xrotation Yrotation
        JOINT RightKnee
        {
            OFFSET 0.0 0.0 -19.563673130878865
            CHANNELS 3 Zrotation Xrotation Yrotation
            JOINT RightAnkle
            {
                OFFSET 0.0 0.0 -20.736082615126698
                CHANNELS 3 Zrotation Xrotation Yrotation
                End Site
                {
                    OFFSET 0.0 5.865049852960226 -5.865049852960226
                }
                End Site
                {
                    OFFSET 0.0 -5.865049852960226 -5.865049852960226
                }
            }
        }
    }
    JOINT LeftHip
    {
        OFFSET 5.74966966517394 0.0 0.0
        CHANNELS 3 Zrotation Xrotation Yrotation
        JOINT LeftKnee
        {
            OFFSET 0.0 0.0 -19.563673130878865
            CHANNELS 3 Zrotation Xrotation Yrotation
            JOINT LeftAnkle
            {
                OFFSET 0.0 0.0 -20.736082615126698
                CHANNELS 3 Zrotation Xrotation Yrotation
                End Site
                {
                    OFFSET 0.0 5.865049852960226 -5.865049852960226
                }
                End Site
                {
                    OFFSET 0.0 -5.865049852960226 -5.865049852960226
                }
            }
        }
    }
}
MOTION
Frames: 7
Frame Time: 0.03333333333333333
-3.956826567174815 41.89798328290003 -40.933298091978145 23.415824314015502 -68.42301274276927 27.65664123222888 0.5108376378809185 -11.818431276439265 -2.4607148903567966 -4.851340640373409 -1.732042212847344e-14 -3.3578875830326857e-16 -7.95138670365879e-16 6.348685321202565e-15 -7.95138670365879e-16 -57.480390250477846 -38.12007543311484 -55.38224325986019 142.97376990065695 5.0220331151795056e-15 5.035754541172344e-15 120.34458956266656 -50.900218231915815 127.02836353360318 -65.17994517842617 -21.981909259967054 60.560817789715266 -88.87162403085487 2.27102807511386e-15 2.22673742588212e-15 -28.086561379779607 14.402255288697084 -172.43913091577178 0.9945822099760007 -22.165022816281724 8.175911618674103 0.5960137024899245 6.119947150967936 -5.182773037301775 3.975693351829397e-16 0.0 0.0 0.8788673424829802 -19.798251549840263 -11.386678191800936 -0.961157259612647 3.8547631664085626 0.24165896469684384 0.0 0.0 -1.5902773407317584e-15
-4.126758892556318 42.19704668556593 -40.89132360210901 17.97710612480269 -69.51784212639797 23.476520600744177 0.0186192905774894 -11.525179551964904 -3.4405608581697416 -4.092776292674395 3.0082616748994023e-15 -6.881566798841459e-16 1.987846675914698e-16 1.7241821476758432e-34 9.93923337957349e-17 -37.07938534748482 -22.2125941095997 -60.27964743267431 142.51551207945246 6.0238028469771324e-15 2.0438961783486343e-15 63.30541124888043 -44.9893308051624 54.578023888405625 -70.18050938620478 -24.10047490005236 54.689776692917185 -83.41106621345641 -3.506126050596081e-15 -3.1244517844487588e-15 -26.91874556385948 9.009793606166024 -175.45375888236015 0.038445821557896165 -22.833093823562603 5.219255825900902 0.8164693636750979 9.036131927172866 -2.6000185493501506 7.454425034680117e-16 -4.849262290338309e-33 -7.454425034680117e-16 0.03247482140171575 -19.577901803392017 -14.331666892731677 -1.3799661386248467 5.347405577485628 1.8635811887963505 0.0 0.0 0.0
-4.148493785387675 42.26953186195593 -40.85558294539865 16.48040891516251 -69.81334734787774 22.230737055742132 -0.060004781997156455 -11.40237589385922 -3.8275452695387195 -3.5903159800847284 4.9206923322732205e-15 -7.407475115573763e-16 5.963540027744094e-16 5.17254644302753e-34 9.93923337957349e-17 -17.338846659084922 -15.014855096579563 -62.06720057361164 139.92044126003384 -4.886087057388021e-15 -5.1677648627354084e-15 51.113611672957354 -33.667803984649126 34.503886455719815 -71.86454285640691 -22.93231960158652 52.948267430161636 -85.77636045726014 0.0 -0.0 -25.25657532223161 8.01814527044283 -176.2350353857752 -0.12601836879598372 -22.955214012583067 4.604410945429533 0.800300408882152 9.202446184474232 -1.5652652118481294 -4.969616689786746e-17 1.939704916135324e-34 -4.472655020808071e-16 -0.10544421994041844 -19.514438309788318 -15.047522531014568 -1.5293467083746248 5.795801387884356 2.5902527630339334 0.0 0.0 -7.951386703658792e-16
-4.30305207035626 42.38126590697229 -40.77699486119617 15.958779617207984 -70.02949492736346 22.21942526562314 -0.3431404463786455 -11.287967534345192 -4.232377702006122 -3.7516040373041606 2.0743240048072586e-14 6.79354040563093e-16 9.93923337957349e-17 6.3611093629270335e-15 -5.517382872562698e-33 -21.38385213016222 -19.005729568587338 -62.786490162545974 138.33191334821302 -3.393610593126036e-15 8.917777743263072e-15 63.140492040498906 -50.4102051533653 56.687874590888946 -71.93116795997896 -22.097408372261068 51.572117600077746 -86.03024724318085 -5.604950627661817e-16 8.176914467125217e-15 -21.285909649908977 10.774837635446271 -175.83417431442183 -0.7317590769406731 -23.05692461528183 3.6782411495228358 0.9174294543952713 9.363513997402489 -1.5554174502788212 -3.975693351829396e-16 -5.17254644302753e-34 1.4908850069360235e-16 -0.6045363474780181 -19.37413567640594 -16.146969126919394 -1.600027254225901 6.240051916524165 3.5607176153969324 0.0 0.0 -7.951386703658792e-16
-4.259928009876803 42.438379815328545 -40.74666879401779 15.728652670044752 -70.1913808815766 21.991388530664086 -0.4633139935904618 -11.210823781011882 -4.460706048333788 -3.958634378234002 9.307761501428456e-15 -1.070653195155047e-15 9.93923337957349e-17 6.361109362927032e-15 -4.969616689786744e-16 -10.257659348614888 -16.382774479389546 -57.89358679354579 138.10324779575407 2.970329366369531e-14 1.1371330340212088e-14 58.873854007535215 -44.55217775286883 49.280027384773554 -72.92536969573172 -22.373207683241805 50.33772153319693 -84.93901447756217 -7.606308113419538e-15 1.8908447153105896e-14 -22.411698402946357 2.4646656920864944 -178.98396930639876 -0.9899578773994079 -22.95162906266157 3.1256091009022793 0.9314491185354116 9.310297866519281 -0.6772662371909558 -1.9878466759146977e-16 8.620910738379216e-34 -4.969616689786744e-16 -0.8261354830951717 -19.46366831802306 -15.61671274447517 -1.669004597687546 7.112436072984668 2.702903868114412 0.0 6.3611093629270335e-15 0.0
-4.273050328437739 42.434201176130216 -40.66992666209339 16.206206358940165 -70.23061401179098 22.46001718233829 -0.46689464326644653 -11.180783539148429 -4.607020904765649 -3.8444181094949705 1.3010653586590376e-14 1.383117677788459e-16 9.939233379573492e-17 -3.1060104311167164e-18 2.694034605743505e-36 -18.64789611137735 -21.821519263486785 -58.95684125015307 141.87378738409132 -1.8036787254877143e-14 -6.232793632582684e-15 68.74721877614432 -53.97216321808796 64.31619427031255 -74.32883693254712 -22.776570910739608 48.151850301890356 -84.05483489877716 -1.181297041796908e-15 -1.0646686430466278e-15 -25.68041694129996 7.96399526897951 -176.18849146317294 -0.987325714879272 -22.683067768359333 3.239296937491619 0.959247500774428 9.362041766475032 -0.6803268815988268 -9.939233379573492e-17 3.4483642953516864e-34 -3.975693351829397e-16 -0.8231749056320267 -19.21230244303417 -15.869681014091231 -1.619970287295466 6.783199438742608 2.9150489302208547 0.0 0.0 0.0
-4.2512370301208176 42.39401144982882 -40.60029427797279 15.364442903234217 -70.33038419731415 21.70426523192015 -0.4321710009424053 -11.38935750674475 -4.875375544243491 -3.656281250294382 -1.447985544850622e-14 7.311487332415306e-16 9.93923337957349e-17 0.0 0.0 -22.516037799772743 -23.167544075404255 -58.99261482447889 141.49448024823153 -2.0113544965172815e-14 -2.871100923882731e-16 71.11994986890322 -53.68272473721178 67.00198295866592 -74.4849144425823 -22.35078832691954 47.70519522872911 -83.60948164958619 -1.869426532348638e-15 6.861842671545918e-15 -24.972175933622722 9.164342979355464 -175.75795659029612 -0.888449022531726 -22.494845599193408 2.8838885668703793 0.8784109135830691 9.553008053837386 -0.3651320808292246 -3.975693351829396e-16 6.896728590703373e-34 -1.987846675914698e-16 -0.7336493381821687 -18.87863785148189 -15.750552757182472 -1.579256860209931 6.556468159965933 2.640071229730732 0.0 0.0 0.0
